<svg width="512" height="512" viewBox="0 0 512 512" fill="none" xmlns="http://www.w3.org/2000/svg">
<path fill-rule="evenodd" clip-rule="evenodd" d="M227.952 2.2513C141.932 15.6415 78.1455 73.6373 63.2469 152.009C59.4356 172.052 55.8079 202.386 53.4551 233.87C51.3403 262.171 50.2081 516.969 52.2192 511.926C52.804 510.46 54.9664 503.842 57.025 497.221C77.3704 431.752 141.9 376.997 217.601 360.968C225.165 359.366 242.445 356.99 256.002 355.689C287.195 352.692 301.65 350.11 324.001 343.543C345.965 337.089 361.516 330.511 379.25 320.171C395.317 310.803 419.286 290.209 428.902 277.511C442.918 259 453.881 235.33 458.527 213.555C461.255 200.763 461.278 158.307 458.563 145.836C439.894 60.0936 356.868 -0.698218 259.402 0.00605607C249.585 0.0767845 235.432 1.08654 227.952 2.2513ZM280.626 110.529C308.377 116.928 332.397 139.364 337.577 163.723C341.286 181.167 338.675 199.891 330.575 213.947C324.566 224.373 307.678 238.048 292.482 244.792C273.529 253.203 259.037 257.566 221.499 266.16C203.544 270.271 185.028 274.67 180.353 275.933C175.678 277.197 171.558 278.238 171.195 278.247C169.261 278.295 177.03 204.191 181.448 180.448C186.648 152.501 192.89 140.015 207.859 127.621C228.563 110.478 254.244 104.446 280.626 110.529ZM42.3186 136.569C25.6588 158.052 11.2634 189.409 4.2153 219.574C-1.40652 243.628 -1.40482 283.326 4.2187 306.856C8.74574 325.796 15.7615 344.447 24.3957 360.497L30.7553 372.317L31.2262 351.046C31.6359 332.541 31.1599 327.945 27.5679 315.682C15.6867 275.112 17.6094 233.733 33.256 193.239C36.1357 185.79 40.0287 170.892 41.9089 160.132C43.789 149.372 46.0449 138.236 46.9204 135.386C47.7959 132.536 48.3416 130.059 48.1342 129.881C47.9251 129.705 45.3088 132.714 42.3186 136.569ZM480.115 173.328C480.555 191.177 481.553 199.245 484.622 209.792C495.818 248.267 494.527 288.924 480.899 327.113C461.553 381.327 414.758 428.458 356.263 452.641C325.551 465.337 300.652 470.658 266.202 471.889C217.142 473.641 172.042 463.334 132.422 441.315L118.034 433.318L113.493 438.027C105.848 445.959 105.466 447.13 109.673 449.727C185.785 496.739 288.825 503.294 370.82 466.339C442.916 433.846 491.245 377.334 507.853 306.103C513.351 282.525 513.387 242.516 507.932 219.251C503.262 199.332 494.912 177.373 486.177 162.042L479.549 150.408L480.115 173.328Z" fill="#9D0208"/>
</svg>
